<?xml version="1.0" encoding="iso-8859-1"?>
<!-- Generator: Adobe Illustrator 19.0.0, SVG Export Plug-In . SVG Version: 6.00 Build 0)  -->
<svg version="1.1" id="Capa_1" xmlns="http://www.w3.org/2000/svg" xmlns:xlink="http://www.w3.org/1999/xlink" x="0px" y="0px"
	 viewBox="0 0 343.077 343.077" style="enable-background:new 0 0 343.077 343.077;" xml:space="preserve">
<path id="XMLID_348_" d="M303.636,61.472c-1.573,0-3.147,0.208-4.679,0.62c-6.233,1.675-12.689,2.524-19.188,2.524
	c-32.6,0-60.996-20.908-70.659-52.025C206.773,5.06,199.904,0,192.016,0h-40.955c-7.888,0-14.757,5.06-17.093,12.588
	c-9.664,31.119-38.061,52.027-70.66,52.027c-6.499,0-12.955-0.849-19.188-2.524c-1.531-0.411-3.105-0.62-4.679-0.62
	c-9.871,0-17.902,8.032-17.902,17.904v125.547c0,42.285,35.823,76.971,65.876,98.622c32.821,23.647,69.996,39.532,84.124,39.532
	c13.238,0,50.697-16.226,83.284-39.509c30.436-21.746,66.716-56.512,66.716-98.645V79.376
	C321.539,69.504,313.507,61.472,303.636,61.472z M41.539,204.923V82.067c7.11,1.692,14.421,2.548,21.77,2.548
	c20.462,0,39.914-6.465,56.253-18.696C134.928,54.415,146.614,38.155,152.594,20h8.944v300.765
	c-13.922-4.62-38.308-16.065-62.434-33.447C77.606,271.829,41.539,240.528,41.539,204.923z M301.539,204.923
	c0,35.401-36.554,66.804-58.343,82.372c-23.966,17.124-48.1,28.429-61.657,33.199V20h8.944
	c5.979,18.154,17.665,34.415,33.033,45.919c16.339,12.231,35.791,18.696,56.253,18.696c7.349,0,14.659-0.856,21.77-2.548V204.923z"
	/>
<g>
</g>
<g>
</g>
<g>
</g>
<g>
</g>
<g>
</g>
<g>
</g>
<g>
</g>
<g>
</g>
<g>
</g>
<g>
</g>
<g>
</g>
<g>
</g>
<g>
</g>
<g>
</g>
<g>
</g>
</svg>
